<svg width="453" height="108" viewBox="0 0 453 108" fill="none" xmlns="http://www.w3.org/2000/svg">
<rect width="453" height="108" rx="8" fill="#2E2F31"/>
<rect x="4" y="4" width="447" height="100" rx="7" fill="#FBDD65"/>
<rect x="9" y="9" width="437" height="90" rx="4" fill="#E0E0DE"/>
<rect x="9" y="9" width="437" height="90" rx="4" stroke="#616068" stroke-width="6"/>
<path d="M30.08 37.12H25.79V41.86H30.08C31.58 41.86 32.78 41.11 32.78 39.49C32.78 37.93 31.58 37.12 30.08 37.12ZM28.94 29.14H25.79V32.98H28.94C30.44 32.98 31.64 32.47 31.64 31.06C31.64 29.68 30.44 29.14 28.94 29.14ZM30.08 46H21.92V25H28.94C32.57 25 35.51 27.7 35.51 31.06C35.51 32.35 35.09 33.55 34.34 34.54C35.75 35.71 36.68 37.51 36.68 39.49C36.68 43.09 33.71 46 30.08 46ZM48.6446 31.09H52.5146V46H50.2946L49.3946 44.05C47.7446 45.61 46.3046 46.03 44.9246 46.03C41.3246 46.03 38.3846 42.91 38.3846 39.04V31.09H42.2546V38.44C42.2546 40.33 43.6946 41.86 45.4646 41.86C47.2346 41.86 48.6446 40.33 48.6446 38.47V31.09ZM61.9691 35.23H59.9591V41.05C59.9591 41.95 60.1091 42.28 60.4991 42.28C60.8591 42.28 61.2191 42.13 61.9091 41.86V45.61C61.1891 45.88 60.4691 46 59.8091 46C56.9591 46 56.0291 43.63 56.0291 41.14V35.23H54.4691V31.12H56.0291V28.24L59.9591 26.68V31.12H61.9691V35.23ZM79.6691 42.07C81.4991 42.07 82.9391 40.48 82.9391 38.56C82.9391 36.64 81.4991 35.08 79.6691 35.08C77.8691 35.08 76.3991 36.64 76.3991 38.56C76.3991 40.48 77.8691 42.07 79.6691 42.07ZM80.2091 31.09C83.8691 31.09 86.8391 34.45 86.8391 38.56C86.8391 42.7 83.8691 46.03 80.2091 46.03C78.4391 46.03 76.8491 45.28 75.6791 44.02L74.7491 46H72.5291V25H76.3991V32.44C77.4791 31.6 78.7991 31.09 80.2091 31.09ZM92.3691 37.03H98.2191C98.2191 35.71 96.8391 35.08 95.2791 35.08C93.8091 35.08 92.3691 35.8 92.3691 37.03ZM102.449 38.56V39.61H92.1291C92.6091 41.53 94.1691 42.25 96.0291 42.25C97.7991 42.25 98.7291 41.59 99.4491 40.72L102.179 43.27C100.439 45.34 97.5591 46.03 95.2791 46.03C91.3491 46.03 88.1391 42.7 88.1391 38.56C88.1391 34.45 91.3491 31.09 95.2791 31.09C99.2391 31.09 102.449 34.45 102.449 38.56ZM119.405 31.09H123.305L119.585 46H114.965L113.135 38.83L111.365 46H106.745L102.935 31.09H106.805L109.055 41.86L111.185 31.15L111.155 31.09H115.055V31.15L117.305 41.86L119.405 31.09ZM130.898 42.07C132.728 42.07 134.168 40.48 134.168 38.56C134.168 36.64 132.728 35.08 130.898 35.08C129.098 35.08 127.628 36.64 127.628 38.56C127.628 40.48 129.098 42.07 130.898 42.07ZM134.918 33.13L135.848 31.09H138.068V46H134.198V44.68C133.118 45.52 131.798 46.03 130.388 46.03C126.728 46.03 123.758 42.7 123.758 38.56C123.758 34.45 126.728 31.09 130.388 31.09C132.128 31.09 133.748 31.87 134.918 33.13ZM148.398 31.09C148.818 31.09 149.238 31.15 149.628 31.24V35.83C149.118 35.47 148.518 35.26 147.888 35.26C146.118 35.26 144.678 36.79 144.678 38.68V46H140.808V31.12H143.028L143.898 33.01C145.068 31.84 146.658 31.09 148.398 31.09ZM154.848 37.03H160.698C160.698 35.71 159.318 35.08 157.758 35.08C156.288 35.08 154.848 35.8 154.848 37.03ZM164.928 38.56V39.61H154.608C155.088 41.53 156.648 42.25 158.508 42.25C160.278 42.25 161.208 41.59 161.928 40.72L164.658 43.27C162.918 45.34 160.038 46.03 157.758 46.03C153.828 46.03 150.618 42.7 150.618 38.56C150.618 34.45 153.828 31.09 157.758 31.09C161.718 31.09 164.928 34.45 164.928 38.56ZM181.629 31.09C185.589 31.09 188.799 34.45 188.799 38.56C188.799 42.7 185.589 46.03 181.629 46.03C177.699 46.03 174.489 42.7 174.489 38.56C174.489 34.45 177.699 31.09 181.629 31.09ZM181.629 42.07C183.459 42.07 184.899 40.48 184.899 38.56C184.899 36.64 183.459 35.08 181.629 35.08C179.829 35.08 178.359 36.64 178.359 38.56C178.359 40.48 179.829 42.07 181.629 42.07ZM195.486 31.09H198.666V35.2H195.486V46H191.556V35.2H189.996V31.09H191.556V29.86C191.556 27.25 192.576 25 195.516 25C196.476 25 197.886 25.21 198.606 25.39V29.14C198.336 29.05 197.286 28.63 196.566 28.69C196.146 28.69 195.486 29.05 195.486 29.95V31.09ZM214.886 42.07C216.716 42.07 218.156 40.48 218.156 38.56C218.156 36.64 216.716 35.08 214.886 35.08C213.086 35.08 211.616 36.64 211.616 38.56C211.616 40.48 213.086 42.07 214.886 42.07ZM218.906 33.13L219.836 31.09H222.056V46H218.186V44.68C217.106 45.52 215.786 46.03 214.376 46.03C210.716 46.03 207.746 42.7 207.746 38.56C207.746 34.45 210.716 31.09 214.376 31.09C216.116 31.09 217.736 31.87 218.906 33.13ZM232.387 31.09C236.017 31.09 238.927 34.24 238.927 38.08V46H235.057V38.68C235.057 36.79 233.647 35.26 231.877 35.26C230.107 35.26 228.667 36.79 228.667 38.68V46H224.797V31.09H227.017L227.947 33.07C229.567 31.51 231.007 31.09 232.387 31.09ZM251.291 31.12H255.161V45.07C255.161 49.48 252.461 52.6 247.931 52.6C245.891 52.6 244.121 51.88 242.681 50.47L244.451 47.05C245.441 48.31 246.611 48.97 247.931 48.97C250.331 48.97 251.261 47.26 251.261 45.07V44.83C250.211 45.58 248.951 46.03 247.571 46.03C243.971 46.03 241.031 42.91 241.031 39.04V31.12H244.901V38.44C244.901 40.33 246.341 41.86 248.111 41.86C249.881 41.86 251.291 40.33 251.291 38.44V31.12ZM264.616 35.23H262.606V41.05C262.606 41.95 262.756 42.28 263.146 42.28C263.506 42.28 263.866 42.13 264.556 41.86V45.61C263.836 45.88 263.116 46 262.456 46C259.606 46 258.676 43.63 258.676 41.14V35.23H257.116V31.12H258.676V28.24L262.606 26.68V31.12H264.616V35.23ZM274.521 31.09C278.151 31.09 281.061 34.24 281.061 38.08V46.03H277.191V38.68C277.191 36.79 275.781 35.26 274.011 35.26C272.241 35.26 270.801 36.79 270.801 38.68V46.03L266.931 46V25H270.801V32.35C271.851 31.57 273.141 31.09 274.521 31.09ZM283.496 46V31.09H287.396V46H283.496ZM288.446 26.68V27.19C287.216 27.73 286.226 28.75 285.686 29.98H285.206C284.666 28.75 283.676 27.73 282.446 27.19V26.68C283.676 26.14 284.666 25.12 285.206 23.89H285.686C286.226 25.12 287.216 26.14 288.446 26.68ZM297.748 31.09C301.378 31.09 304.288 34.24 304.288 38.08V46H300.418V38.68C300.418 36.79 299.008 35.26 297.238 35.26C295.468 35.26 294.028 36.79 294.028 38.68V46H290.158V31.09H292.378L293.308 33.07C294.928 31.51 296.368 31.09 297.748 31.09ZM313.112 42.07C314.942 42.07 316.382 40.48 316.382 38.56C316.382 36.64 314.942 35.08 313.112 35.08C311.312 35.08 309.842 36.64 309.842 38.56C309.842 40.48 311.312 42.07 313.112 42.07ZM318.062 31.12H320.282V37.66H320.312V45.07C320.312 49.48 317.582 52.6 313.052 52.6C311.012 52.6 309.272 51.88 307.802 50.47L309.572 47.05C310.592 48.31 311.732 48.97 313.052 48.97C315.452 48.97 316.382 47.26 316.382 45.07V44.68C315.332 45.52 314.012 46.03 312.602 46.03C308.942 46.03 305.972 42.7 305.972 38.56C305.972 34.45 308.942 31.09 312.602 31.09C314.342 31.09 315.962 31.87 317.132 33.13L318.062 31.12ZM337.957 35.23H335.947V41.05C335.947 41.95 336.097 42.28 336.487 42.28C336.847 42.28 337.207 42.13 337.897 41.86V45.61C337.177 45.88 336.457 46 335.797 46C332.947 46 332.017 43.63 332.017 41.14V35.23H330.457V31.12H332.017V28.24L335.947 26.68V31.12H337.957V35.23ZM347.863 31.09C351.493 31.09 354.403 34.24 354.403 38.08V46.03H350.533V38.68C350.533 36.79 349.123 35.26 347.353 35.26C345.583 35.26 344.143 36.79 344.143 38.68V46.03L340.273 46V25H344.143V32.35C345.193 31.57 346.483 31.09 347.863 31.09ZM363.228 42.07C365.058 42.07 366.498 40.48 366.498 38.56C366.498 36.64 365.058 35.08 363.228 35.08C361.428 35.08 359.958 36.64 359.958 38.56C359.958 40.48 361.428 42.07 363.228 42.07ZM367.248 33.13L368.178 31.09H370.398V46H366.528V44.68C365.448 45.52 364.128 46.03 362.718 46.03C359.058 46.03 356.088 42.7 356.088 38.56C356.088 34.45 359.058 31.09 362.718 31.09C364.458 31.09 366.078 31.87 367.248 33.13ZM379.828 35.23H377.818V41.05C377.818 41.95 377.968 42.28 378.358 42.28C378.718 42.28 379.078 42.13 379.768 41.86V45.61C379.048 45.88 378.328 46 377.668 46C374.818 46 373.888 43.63 373.888 41.14V35.23H372.328V31.12H373.888V28.24L377.818 26.68V31.12H379.828V35.23ZM21.74 59H25.61V80H21.74V59ZM34.7928 65.09C38.7528 65.09 41.9628 68.45 41.9628 72.56C41.9628 76.7 38.7528 80.03 34.7928 80.03C30.8628 80.03 27.6528 76.7 27.6528 72.56C27.6528 68.45 30.8628 65.09 34.7928 65.09ZM34.7928 76.07C36.6228 76.07 38.0628 74.48 38.0628 72.56C38.0628 70.64 36.6228 69.08 34.7928 69.08C32.9928 69.08 31.5228 70.64 31.5228 72.56C31.5228 74.48 32.9928 76.07 34.7928 76.07ZM50.3905 65.09C54.3505 65.09 57.5605 68.45 57.5605 72.56C57.5605 76.7 54.3505 80.03 50.3905 80.03C46.4605 80.03 43.2505 76.7 43.2505 72.56C43.2505 68.45 46.4605 65.09 50.3905 65.09ZM50.3905 76.07C52.2205 76.07 53.6605 74.48 53.6605 72.56C53.6605 70.64 52.2205 69.08 50.3905 69.08C48.5905 69.08 47.1205 70.64 47.1205 72.56C47.1205 74.48 48.5905 76.07 50.3905 76.07ZM67.7881 71.12L73.4581 80H68.8681L65.2381 74.33L63.4381 76.61V80H59.5681V59H63.4381V70.37L67.6381 65.09H72.5881L67.7881 71.12ZM85.7921 73.25C86.2421 73.82 86.4821 74.57 86.4821 75.47C86.4821 78.98 83.6921 80.15 80.6021 80.15C78.3221 80.15 75.7721 79.37 74.2421 77.63L74.0621 77.45L76.3421 74.9L76.5221 75.08C77.8421 76.4 79.1021 76.67 80.6021 76.67C81.2921 76.67 82.5821 76.49 82.5821 75.5C82.5821 74.78 80.7221 74.33 79.8221 74.06C77.2721 73.4 74.7221 72.68 74.7221 69.59C74.7221 65.99 77.7221 64.91 80.8121 64.91C82.9721 64.91 84.9821 65.84 86.2721 67.4L86.4221 67.58L84.0821 70.19L83.9021 69.92C83.1521 68.87 81.6521 68.39 80.6021 68.39C78.9821 68.39 78.5921 68.99 78.5921 69.32C78.5921 70.4 80.2721 70.79 81.3821 71.12C83.1521 71.63 84.9821 72.17 85.7921 73.25ZM103.289 76.07C105.119 76.07 106.559 74.48 106.559 72.56C106.559 70.64 105.119 69.08 103.289 69.08C101.489 69.08 100.019 70.64 100.019 72.56C100.019 74.48 101.489 76.07 103.289 76.07ZM106.559 66.44V59H110.459V80H108.239L107.309 78.02C106.109 79.28 104.519 80.03 102.779 80.03C99.1189 80.03 96.1489 76.7 96.1489 72.56C96.1489 68.45 99.1189 65.09 102.779 65.09C104.189 65.09 105.509 65.6 106.559 66.44ZM119.589 76.07C121.419 76.07 122.859 74.48 122.859 72.56C122.859 70.64 121.419 69.08 119.589 69.08C117.789 69.08 116.319 70.64 116.319 72.56C116.319 74.48 117.789 76.07 119.589 76.07ZM123.609 67.13L124.539 65.09H126.759V80H122.889V78.68C121.809 79.52 120.489 80.03 119.079 80.03C115.419 80.03 112.449 76.7 112.449 72.56C112.449 68.45 115.419 65.09 119.079 65.09C120.819 65.09 122.439 65.87 123.609 67.13ZM137.09 65.09C140.72 65.09 143.63 68.24 143.63 72.08V80H139.76V72.68C139.76 70.79 138.35 69.26 136.58 69.26C134.81 69.26 133.37 70.79 133.37 72.68V80H129.5V65.09H131.72L132.65 67.07C134.27 65.51 135.71 65.09 137.09 65.09ZM152.454 76.07C154.284 76.07 155.724 74.48 155.724 72.56C155.724 70.64 154.284 69.08 152.454 69.08C150.654 69.08 149.184 70.64 149.184 72.56C149.184 74.48 150.654 76.07 152.454 76.07ZM157.404 65.12H159.624V71.66H159.654V79.07C159.654 83.48 156.924 86.6 152.394 86.6C150.354 86.6 148.614 85.88 147.144 84.47L148.914 81.05C149.934 82.31 151.074 82.97 152.394 82.97C154.794 82.97 155.724 81.26 155.724 79.07V78.68C154.674 79.52 153.354 80.03 151.944 80.03C148.284 80.03 145.314 76.7 145.314 72.56C145.314 68.45 148.284 65.09 151.944 65.09C153.684 65.09 155.304 65.87 156.474 67.13L157.404 65.12ZM165.875 71.03H171.725C171.725 69.71 170.345 69.08 168.785 69.08C167.315 69.08 165.875 69.8 165.875 71.03ZM175.955 72.56V73.61H165.635C166.115 75.53 167.675 76.25 169.535 76.25C171.305 76.25 172.235 75.59 172.955 74.72L175.685 77.27C173.945 79.34 171.065 80.03 168.785 80.03C164.855 80.03 161.645 76.7 161.645 72.56C161.645 68.45 164.855 65.09 168.785 65.09C172.745 65.09 175.955 68.45 175.955 72.56ZM185.582 65.09C186.002 65.09 186.422 65.15 186.812 65.24V69.83C186.302 69.47 185.702 69.26 185.072 69.26C183.302 69.26 181.862 70.79 181.862 72.68V80H177.992V65.12H180.212L181.082 67.01C182.252 65.84 183.842 65.09 185.582 65.09ZM194.941 65.09C198.901 65.09 202.111 68.45 202.111 72.56C202.111 76.7 198.901 80.03 194.941 80.03C191.011 80.03 187.801 76.7 187.801 72.56C187.801 68.45 191.011 65.09 194.941 65.09ZM194.941 76.07C196.771 76.07 198.211 74.48 198.211 72.56C198.211 70.64 196.771 69.08 194.941 69.08C193.141 69.08 191.671 70.64 191.671 72.56C191.671 74.48 193.141 76.07 194.941 76.07ZM214.049 65.09H217.919V80H215.699L214.799 78.05C213.149 79.61 211.709 80.03 210.329 80.03C206.729 80.03 203.789 76.91 203.789 73.04V65.09H207.659V72.44C207.659 74.33 209.099 75.86 210.869 75.86C212.639 75.86 214.049 74.33 214.049 72.47V65.09ZM231.573 73.25C232.023 73.82 232.263 74.57 232.263 75.47C232.263 78.98 229.473 80.15 226.383 80.15C224.103 80.15 221.553 79.37 220.023 77.63L219.843 77.45L222.123 74.9L222.303 75.08C223.623 76.4 224.883 76.67 226.383 76.67C227.073 76.67 228.363 76.49 228.363 75.5C228.363 74.78 226.503 74.33 225.603 74.06C223.053 73.4 220.503 72.68 220.503 69.59C220.503 65.99 223.503 64.91 226.593 64.91C228.753 64.91 230.763 65.84 232.053 67.4L232.203 67.58L229.863 70.19L229.683 69.92C228.933 68.87 227.433 68.39 226.383 68.39C224.763 68.39 224.373 68.99 224.373 69.32C224.373 70.4 226.053 70.79 227.163 71.12C228.933 71.63 230.763 72.17 231.573 73.25ZM238.164 73.43H235.704L234.984 59.03V59H238.884L238.164 73.43ZM239.934 77.21V77.72C238.704 78.26 237.714 79.28 237.174 80.51H236.694C236.154 79.28 235.164 78.26 233.934 77.72V77.21C235.164 76.67 236.154 75.65 236.694 74.42H237.174C237.714 75.65 238.704 76.67 239.934 77.21Z" fill="#4A4A48"/>
</svg>
