<svg xmlns="http://www.w3.org/2000/svg" width="1024" height="1024" viewBox="0 0 1024 1024"><path d="M420 422Q330 393 276 444Q240 519 214 617L160 874Q298 811 466 854Q557 872 641 847Q561 720 575 566Q568 469 498 427Z" fill="#164F9B"/><path d="M414 427Q325 417 287 458Q245 595 189 844" fill="none" stroke="#F1BC32" stroke-width="18"/><path d="M181 855Q318 801 468 843Q550 858 619 838" fill="none" stroke="#F1BC32" stroke-width="17"/><path d="M352 300L320 245" stroke="#C4E7F3" stroke-width="28" stroke-linecap="round"/><path d="M676 295L706 230" stroke="#C4E7F3" stroke-width="28" stroke-linecap="round"/><ellipse cx="420" cy="858" rx="58" ry="30" fill="#C4E7F3" stroke="#78B5CC" stroke-width="4"/><ellipse cx="620" cy="858" rx="58" ry="30" fill="#C4E7F3" stroke="#78B5CC" stroke-width="4"/><ellipse cx="212" cy="682" rx="43" ry="51" fill="#A8D5E5" stroke="#78B5CC" stroke-width="4"/><path d="M202 588C202 415 338 290 512 290C681 290 822 412 822 586C822 757 692 860 512 860C333 860 202 757 202 588Z" fill="#C4E7F3"/><ellipse cx="820" cy="680" rx="43" ry="55" fill="#C4E7F3" stroke="#78B5CC" stroke-width="4"/><circle cx="309" cy="226" r="40" fill="#C4E7F3" stroke="#78B5CC" stroke-width="4"/><circle cx="724" cy="212" r="40" fill="#C4E7F3" stroke="#78B5CC" stroke-width="4"/><ellipse cx="590" cy="520" rx="82" ry="87" fill="#fff"/><ellipse cx="718" cy="526" rx="61" ry="76" fill="#fff"/><ellipse cx="621" cy="529" rx="38" ry="48" fill="#070B12"/><ellipse cx="741" cy="531" rx="29" ry="40" fill="#070B12"/><ellipse cx="607" cy="508" rx="10" ry="15" fill="#fff"/><ellipse cx="731" cy="514" rx="8" ry="12" fill="#fff"/><path d="M628 650Q666 684 704 649" fill="none" stroke="#101923" stroke-width="10" stroke-linecap="round"/><path d="M289 584Q257 378 407 278Q568 171 751 310L724 382Q580 284 414 365L363 592Z" fill="#D7DBDE" stroke="#A4AAAE" stroke-width="10"/><path d="M353 380Q534 253 750 327L728 397Q548 329 372 433Z" fill="#BFC5C9" stroke="#999FA4" stroke-width="8"/><path d="M386 347L410 408M458 309L477 379M535 285L547 356M613 283L618 350M687 300L686 369" stroke="#50575C" stroke-width="16" stroke-linecap="round"/><path d="M291 493Q340 446 395 477L403 622Q381 673 340 704Q294 681 274 630Z" fill="#C5CACD" stroke="#999FA4" stroke-width="9"/><path d="M747 337Q791 363 805 408L781 614Q766 655 733 680L715 635L731 406Z" fill="#C5CACD" stroke="#999FA4" stroke-width="9"/><circle cx="310" cy="526" r="47" fill="#BFC5C9" stroke="#91989D" stroke-width="9"/><circle cx="310" cy="526" r="20" fill="#777F84"/><path d="M296 359Q514 190 773 309" fill="none" stroke="#EEF1F3" stroke-width="14" stroke-linecap="round"/><path d="M820 682L929 526" stroke="#69422B" stroke-width="31" stroke-linecap="round"/><path d="M884 558L940 598" stroke="#E8AF2E" stroke-width="22" stroke-linecap="round"/><path d="M928 542L979 426L982 382L949 414L894 526Z" fill="#E2E6E9" stroke="#AAB0B5" stroke-width="7"/><path d="M949 414L979 426L928 542" fill="#C7CDD1"/><path d="M166 574Q226 532 289 570L307 706Q270 780 220 806Q174 765 151 698Z" fill="#174D88" stroke="#E9B23B" stroke-width="16"/><path d="M217 601H272M261 600V696Q261 742 225 752Q197 757 194 730Q192 706 215 699Q238 693 246 712Q250 728 236 738" fill="none" stroke="#E9B23B" stroke-width="15" stroke-linecap="round" stroke-linejoin="round"/></svg>